<svg width="42" height="42" viewBox="0 0 42 42" fill="none" xmlns="http://www.w3.org/2000/svg">
<circle cx="21" cy="21" r="21" fill="#D9D9D9"/>
<g clip-path="url(#clip0_0_1)">
<path d="M28 32V28.6667C28 26.8986 27.5786 25.2029 26.8284 23.9526C26.0783 22.7024 25.0609 22 24 22H18C16.9391 22 15.9217 22.7024 15.1716 23.9526C14.4214 25.2029 14 26.8986 14 28.6667V32" fill="#082161"/>
<path d="M28 32V28.6667C28 26.8986 27.5786 25.2029 26.8284 23.9526C26.0783 22.7024 25.0609 22 24 22H18C16.9391 22 15.9217 22.7024 15.1716 23.9526C14.4214 25.2029 14 26.8986 14 28.6667V32" stroke="#082161" stroke-width="2" stroke-linecap="round" stroke-linejoin="round"/>
<path d="M21 18C23.2091 18 25 16.2091 25 14C25 11.7909 23.2091 10 21 10C18.7909 10 17 11.7909 17 14C17 16.2091 18.7909 18 21 18Z" fill="#082161" stroke="#082161" stroke-width="2" stroke-linecap="round" stroke-linejoin="round"/>
</g>
<defs>
<clipPath id="clip0_0_1">
<rect width="24" height="24" fill="white" transform="translate(9 7)"/>
</clipPath>
</defs>
</svg>
