<svg width="21" height="22" viewBox="0 0 21 22" fill="none" xmlns="http://www.w3.org/2000/svg">
<path d="M19.6534 10.1294L11.2293 18.5535C10.1972 19.5855 8.79752 20.1653 7.33802 20.1653C5.87852 20.1653 4.47879 19.5855 3.44677 18.5535C2.41475 17.5215 1.83496 16.1218 1.83496 14.6623C1.83496 13.2028 2.41475 11.803 3.44677 10.771L11.3026 2.91518C11.9906 2.22595 12.9243 1.83826 13.8981 1.8374C14.872 1.83654 15.8063 2.22258 16.4955 2.9106C17.1848 3.59862 17.5724 4.53225 17.5733 5.50611C17.5742 6.47997 17.1881 7.41429 16.5001 8.10352L8.62594 15.9593C8.28193 16.3034 7.81535 16.4966 7.32885 16.4966C6.84235 16.4966 6.37578 16.3034 6.03177 15.9593C5.68776 15.6153 5.4945 15.1488 5.4945 14.6623C5.4945 14.1758 5.68776 13.7092 6.03177 13.3652L13.8143 5.59185" stroke="black" stroke-opacity="0.49" stroke-width="2" stroke-linecap="round" stroke-linejoin="round"/>
</svg>
