<svg width="50" height="50" viewBox="0 0 80 68" fill="none" xmlns="http://www.w3.org/2000/svg">
    <g filter="url(#filter0_d_0_1)">
        <rect x="10" y="6" width="60" height="48" rx="8" fill="#FD7E14" />
    </g>
    <path
        d="M23.248 24.252H55.744C55.744 24.252 56.652 23.508 55.744 22.56L39.5 13L23.248 22.556C23.248 22.556 22.124 23.568 23.248 24.252ZM56.804 44.136L54.844 42.432C54.736 42.34 54.492 42.264 54.292 42.264L25.1 42.308C24.904 42.308 24.644 42.38 24.524 42.468L22.216 44.144C22.096 44.232 22 44.392 22 44.5V45.248C22 45.356 22.16 45.448 22.36 45.448H56.644C56.84 45.448 57.004 45.36 57.004 45.248V44.504C56.996 44.392 56.908 44.228 56.804 44.136ZM51.656 25.576H54.648V40.572H51.656V25.576ZM46.76 25.576H49.752V40.572H46.76V25.576ZM29.704 25.576H32.696V40.572H29.704V25.576ZM24.808 25.576H27.8V40.572H24.808V25.576ZM39.56 40.552C39.788 40.552 40.016 40.52 40.232 40.456V38.64C41.16 38.432 41.868 38.032 42.356 37.44C42.84 36.852 43.084 36.128 43.084 35.272C43.084 34.76 43.02 34.336 42.896 33.996C42.772 33.656 42.596 33.368 42.372 33.136C42.148 32.9 41.872 32.7 41.548 32.532C41.224 32.364 40.864 32.196 40.468 32.032L39.528 31.64C39.372 31.576 39.216 31.508 39.06 31.436C38.904 31.364 38.764 31.276 38.636 31.176C38.512 31.076 38.412 30.956 38.34 30.808C38.268 30.66 38.232 30.484 38.232 30.276C38.232 30.036 38.28 29.84 38.372 29.688C38.464 29.536 38.584 29.42 38.732 29.336C38.88 29.252 39.044 29.196 39.224 29.172C39.408 29.148 39.588 29.132 39.764 29.132C40.056 29.132 40.316 29.144 40.548 29.172C40.776 29.2 40.984 29.232 41.168 29.272C41.352 29.312 41.524 29.368 41.684 29.428C41.844 29.492 42.004 29.552 42.16 29.616C42.432 29.032 42.6 28.436 42.66 27.832C42.232 27.684 41.824 27.568 41.44 27.48C41.052 27.392 40.652 27.332 40.232 27.3V25.688C39.992 25.624 39.764 25.596 39.544 25.596C39.316 25.596 39.088 25.628 38.872 25.688V27.348C37.932 27.464 37.196 27.792 36.664 28.336C36.132 28.88 35.864 29.62 35.864 30.56C35.864 31 35.92 31.368 36.028 31.672C36.136 31.976 36.296 32.24 36.496 32.464C36.7 32.688 36.944 32.88 37.224 33.044C37.504 33.208 37.82 33.36 38.164 33.508L38.996 33.868C39.172 33.952 39.356 34.032 39.544 34.104C39.732 34.176 39.9 34.264 40.052 34.372C40.204 34.476 40.328 34.608 40.428 34.772C40.528 34.932 40.576 35.14 40.576 35.392C40.576 35.892 40.396 36.256 40.036 36.48C39.676 36.704 39.168 36.816 38.508 36.816C38.068 36.816 37.656 36.784 37.272 36.716C36.884 36.648 36.472 36.524 36.036 36.348C35.92 36.684 35.82 37.004 35.74 37.312C35.656 37.62 35.6 37.924 35.568 38.228C35.828 38.332 36.08 38.42 36.32 38.496C36.56 38.568 36.804 38.628 37.048 38.676C37.292 38.724 37.552 38.756 37.824 38.776C38.096 38.796 38.404 38.808 38.748 38.808H38.872V40.468C39.1 40.52 39.332 40.552 39.56 40.552Z"
        fill="white" />
    <defs>
        <filter id="filter0_d_0_1" x="0" y="0" width="80" height="68" filterUnits="userSpaceOnUse"
            color-interpolation-filters="sRGB">
            <feFlood flood-opacity="0" result="BackgroundImageFix" />
            <feColorMatrix in="SourceAlpha" type="matrix" values="0 0 0 0 0 0 0 0 0 0 0 0 0 0 0 0 0 0 127 0"
                result="hardAlpha" />
            <feOffset dy="4" />
            <feGaussianBlur stdDeviation="5" />
            <feComposite in2="hardAlpha" operator="out" />
            <feColorMatrix type="matrix" values="0 0 0 0 0 0 0 0 0 0 0 0 0 0 0 0 0 0 0.25 0" />
            <feBlend mode="normal" in2="BackgroundImageFix" result="effect1_dropShadow_0_1" />
            <feBlend mode="normal" in="SourceGraphic" in2="effect1_dropShadow_0_1" result="shape" />
        </filter>
    </defs>
</svg>