<svg width="50" height="50" viewBox="0 0 80 68" fill="none" xmlns="http://www.w3.org/2000/svg">
                                <g filter="url(#filter0_d_0_1)">
                                    <rect x="10" y="6" width="60" height="48" rx="8" fill="#198754" />
                                </g>
                                <path d="M46.04 27.4139V27.9932C46.04 31.4211 46.0332 34.8522 46.0604 38.2832C46.0604 38.6161 45.8567 38.6929 45.1843 38.6865C43.0248 38.6673 40.8721 38.6769 38.7126 38.6833C38.4613 38.6833 38.0946 38.6161 38.0675 38.8401C38.0403 39.0834 38.4342 39.0322 38.7194 39.0322L45.3473 39.0354C45.5646 39.0354 45.9178 38.9842 45.9653 39.1058C46.0332 39.2754 45.6325 39.2498 45.4084 39.2786L38.733 40.1364C38.5836 40.1556 38.4274 40.1652 38.2848 40.194C37.9996 40.2484 38.0335 40.37 38.081 40.4757C38.1354 40.6165 38.3934 40.5589 38.5157 40.5301C39.738 40.2388 40.8178 40.4853 41.9247 40.6997C43.1199 40.9333 44.3287 41.1542 45.5443 41.3654C45.9246 41.4326 46.0943 41.5287 46.0332 41.7175C45.9653 41.9383 45.5986 41.8487 45.3609 41.8519C43.1539 41.8583 40.9468 41.8551 38.733 41.8583C38.4613 41.8583 38.0743 41.7879 38.0539 42.0376C38.0335 42.2904 38.4274 42.2232 38.7058 42.2232C39.5818 42.2296 40.4579 42.2264 41.3882 42.2936C40.4375 42.5529 39.5003 42.8185 38.536 43.065C38.081 43.1802 37.9384 43.3178 38.1693 43.5835C39.3034 43.2794 40.4782 43.0137 41.524 42.6649C42.7532 42.2552 44.0706 42.172 45.4967 42.2168C45.8906 42.2296 46.0264 42.2712 46.0468 42.4664C46.1283 43.337 46.1419 43.3434 44.3627 43.5066C42.5291 43.6731 40.6956 43.8267 38.8552 43.9867C38.4342 44.0251 38.0539 44.0347 37.9724 44.3292C37.7008 45.3438 35.8944 46.0543 33.8503 45.9967C31.6229 45.9295 30.0134 45.1358 30.0066 44.0604C29.9863 41.9896 30.0066 39.9187 30.0066 37.8511C30.0066 37.323 29.9999 36.7981 30.0134 36.27C30.0202 36.1068 29.9319 36.0492 29.5584 36.0108C27.0798 35.7483 26 35.0762 26 33.8728C26.0068 31.0178 26 28.166 26 25.3111C26 25.0038 26 24.6966 26.1766 24.3989C26.6587 23.5923 28.1799 23.0418 29.9863 23.0322C32.2952 23.0226 34.6109 23.0386 36.9266 23.0194C37.5446 23.0162 37.6396 23.1187 37.6328 23.3779C37.6125 26.7834 37.6193 30.1888 37.6261 33.5943C37.6261 33.7031 37.6261 33.8152 37.6328 33.924C37.6396 34.036 37.7619 34.116 38.0063 34.116C38.244 34.116 38.3798 34.036 38.4002 33.9272C38.4206 33.8183 38.4138 33.7063 38.4138 33.5975C38.4138 30.2048 38.4274 26.8122 38.3934 23.4195C38.3934 23.0834 38.5972 23.0194 39.2559 23.0258C41.4629 23.045 43.67 23.0386 45.8838 23.029C46.95 23.0258 47.86 23.1955 48.6681 23.5091C51.0789 24.4405 53.4829 25.3751 55.914 26.2969C57.0481 26.7258 57.6185 27.2699 57.5846 27.9516C57.5846 28.038 57.5778 28.1244 57.5778 28.2077C57.5846 28.4637 57.408 28.771 57.6457 28.9662C57.9241 29.1934 58.6372 29.027 59.1533 29.059C59.649 29.0878 59.9478 29.1966 59.9478 29.4271C59.9546 30.749 60.0972 32.074 59.8799 33.3927C59.778 34.0328 59.0378 34.5961 58.2637 35.121C57.2586 35.8059 56.2196 36.4781 55.1738 37.1502C54.6169 37.5087 54.3725 37.8863 54.3793 38.344C54.42 40.6709 54.3928 42.9977 54.3928 45.3246C54.3928 45.4334 54.4064 45.5454 54.3657 45.6543C54.2842 45.8783 53.9854 46.0095 53.5032 45.9903C53.0618 45.9743 52.7902 45.8399 52.7698 45.6319C52.7426 45.411 52.7562 45.1902 52.7562 44.9693C52.7562 42.7641 52.7359 40.5589 52.7834 38.3536C52.7902 37.8959 52.5389 37.5183 51.9821 37.1598C50.9566 36.4973 49.9244 35.8379 48.9397 35.1594C48.1452 34.6121 47.4661 34.036 47.242 33.3639C47.1945 33.2198 47.1537 33.0726 47.1469 32.9254C47.1401 31.8244 47.1401 30.7201 47.1469 29.6191C47.1469 29.1614 47.3778 29.0558 48.3285 29.0526C48.4847 29.0526 48.6477 29.0622 48.7971 29.0494C49.0484 29.0238 49.4083 29.139 49.5305 28.947C49.6256 28.7902 49.4626 28.6717 49.1842 28.5725C48.1995 28.2173 47.208 27.8428 46.04 27.4139ZM53.5915 36.8974C54.7867 36.0748 56.0974 35.3482 57.1567 34.5353C57.7408 34.084 58.3248 33.6167 58.3587 33.0822C58.4266 32.0676 58.3791 31.0498 58.3859 30.0352C58.3859 29.888 58.3112 29.808 57.9513 29.8144C57.6049 29.8176 57.5914 29.9168 57.5914 30.0352V30.6241C57.5914 31.2611 57.6185 31.898 57.5846 32.5317C57.5235 33.5207 55.7578 34.324 53.6458 34.3497C51.6154 34.3721 49.7682 33.6263 49.646 32.6597C49.5373 31.818 49.5984 30.973 49.5781 30.128C49.5781 29.9872 49.6664 29.8112 49.157 29.824C48.6817 29.8368 48.8379 30.0128 48.8379 30.128C48.8243 31.0818 48.8379 32.0388 48.8311 32.9894C48.8311 33.303 49.0076 33.5943 49.2793 33.8728C50.3658 34.9834 52.1247 35.8732 53.5915 36.8974ZM38.0335 14.0001C42.468 14.0129 46.074 15.722 46.0332 17.7992C45.9993 19.8636 42.3729 21.5568 38.0063 21.5536C33.5379 21.5503 29.9795 19.8252 30.0134 17.6776C30.0474 15.674 33.7281 13.9873 38.0335 14.0001ZM41.1845 45.9295C42.1624 45.2734 43.0927 44.6173 44.1114 43.9931C44.512 43.7467 45.2455 43.8075 45.8431 43.7723C46.0468 43.7595 46.0128 43.8683 46.0332 43.9387C46.3524 45.1614 43.7718 46.2432 41.1845 45.9295ZM43.1335 43.9899C42.2099 44.6141 41.3882 45.1582 40.5801 45.7087C40.3968 45.8335 40.227 45.8111 39.9961 45.7471C39.0793 45.4942 38.5089 45.1198 38.1625 44.6525C38.0199 44.4668 38.2169 44.4124 38.5428 44.3836C40.0165 44.2588 41.4833 44.1308 43.1335 43.9899ZM41.2456 40.1876C42.8347 39.986 44.2268 39.8131 45.619 39.6275C45.9517 39.5827 46.04 39.6371 46.0332 39.7811C46.0264 40.146 46.0332 40.5141 46.0332 40.8789C46.0332 41.007 45.9449 41.0582 45.6597 41.007C44.2608 40.7445 42.8483 40.4821 41.2456 40.1876Z" fill="white" />
                                <defs>
                                    <filter id="filter0_d_0_1" x="0" y="0" width="80" height="68" filterUnits="userSpaceOnUse" color-interpolation-filters="sRGB">
                                        <feFlood flood-opacity="0" result="BackgroundImageFix" />
                                        <feColorMatrix in="SourceAlpha" type="matrix" values="0 0 0 0 0 0 0 0 0 0 0 0 0 0 0 0 0 0 127 0" result="hardAlpha" />
                                        <feOffset dy="4" />
                                        <feGaussianBlur stdDeviation="5" />
                                        <feComposite in2="hardAlpha" operator="out" />
                                        <feColorMatrix type="matrix" values="0 0 0 0 0 0 0 0 0 0 0 0ml-44 0 0 0 0 0 0 0.25 0" />
                                        <feBlend mode="normal" in2="BackgroundImageFix" result="effect1_dropShadow_0_1" />
                                        <feBlend mode="normal" in="SourceGraphic" in2="effect1_dropShadow_0_1" result="shape" />
                                    </filter>
                                </defs>
                            </svg>