<svg width="17" height="17" viewBox="0 0 17 17" fill="none" xmlns="http://www.w3.org/2000/svg">
  <path
    d="M0 16.327C0.4726 14.7052 0.9435 13.0835 1.4161 11.4617C1.4535 11.3325 1.4926 11.2033 1.5266 11.0741C1.581 10.8786 1.683 10.7205 1.8394 10.5896C1.9856 10.4689 2.1148 10.3244 2.2491 10.1901C4.4642 7.99536 6.6793 5.80067 8.8927 3.60427C8.9437 3.55328 8.9879 3.49548 9.0236 3.45128C9.3245 3.75387 9.6067 4.03777 9.9212 4.35397C9.8872 4.37777 9.8209 4.41177 9.7699 4.46277C7.4749 6.75267 5.1816 9.04256 2.8917 11.3376C2.8101 11.4209 2.7421 11.5348 2.7098 11.647C2.4344 12.5565 2.1726 13.471 1.9006 14.3839C1.8666 14.4978 1.8836 14.5692 1.9703 14.6474C2.1114 14.7749 2.2355 14.9211 2.3783 15.0469C2.4276 15.0894 2.5211 15.1217 2.5806 15.1064C3.4952 14.8446 4.4081 14.5777 5.3193 14.3023C5.3975 14.2785 5.4706 14.2122 5.5318 14.1493C7.8591 11.8289 10.183 9.50496 12.5069 7.18277C12.5511 7.13857 12.5885 7.08927 12.614 7.06037C12.9438 7.39017 13.2634 7.70976 13.6136 8.05996C13.5983 8.07016 13.5371 8.09566 13.4946 8.13816C11.203 10.4077 8.908 12.6721 6.6283 14.9534C6.3104 15.273 5.9653 15.4702 5.5386 15.5909C4.0256 16.0193 2.5194 16.4715 1.0098 16.9152C0.9095 16.9441 0.8075 16.9713 0.7072 17.0002H0.5712C0.4981 16.9679 0.4233 16.939 0.3502 16.905C0.1462 16.8098 0.0765 16.616 0 16.4273V16.327ZM4.5713 13.5102C4.5271 13.228 4.4795 12.9696 4.4489 12.7112C4.4336 12.5888 4.3843 12.5395 4.2653 12.5174C3.9746 12.4613 3.6873 12.3882 3.4187 12.3287C5.8293 9.91296 8.2399 7.49557 10.6352 5.09347C11.0177 5.47597 11.4172 5.87377 11.8031 6.25797C9.4163 8.65156 7.0074 11.0673 4.5713 13.5102ZM11.5141 1.08998C11.7317 0.877482 11.9493 0.651382 12.1822 0.440583C12.8503 -0.161216 13.7207 -0.147616 14.3718 0.488183C15.0909 1.18858 15.7998 1.89748 16.5002 2.61658C17.1632 3.29488 17.153 4.20267 16.4917 4.87927C16.2928 5.08327 16.0871 5.28217 15.8967 5.46917C14.4415 4.01567 12.988 2.56388 11.5141 1.08998V1.08998ZM9.741 2.69478C10.0708 2.38538 10.4091 2.06748 10.7304 1.76488C12.2536 3.28808 13.7683 4.80447 15.2966 6.33277C14.9787 6.63027 14.637 6.95157 14.3072 7.26097L9.741 2.69478Z"
    fill="#80ECB8"
  />
</svg>