<svg width="20" height="20" viewBox="0 0 13 15" fill="none" xmlns="http://www.w3.org/2000/svg">
<path
  d="M2.25948 14.2201C2.27648 14.6213 2.60628 14.9375 3.00748 14.9375H9.99618C10.3974 14.9375 10.7289 14.6213 10.7442 14.2201L11.244 3.6835H1.75968L2.25948 14.2201ZM8.08198 6.3015C8.08198 6.1332 8.21798 5.9972 8.38628 5.9972H8.87248C9.04078 5.9972 9.17678 6.1349 9.17678 6.3015V12.3212C9.17678 12.4895 9.03908 12.6255 8.87248 12.6255H8.38628C8.21798 12.6255 8.08198 12.4895 8.08198 12.3212V6.3015ZM5.95528 6.3015C5.95528 6.1332 6.09128 5.9972 6.25958 5.9972H6.74578C6.91408 5.9972 7.05009 6.1349 7.05009 6.3015V12.3212C7.05009 12.4895 6.91408 12.6255 6.74578 12.6255H6.25958C6.09128 12.6255 5.95528 12.4895 5.95528 12.3212V6.3015ZM3.82688 6.3015C3.82688 6.1332 3.96288 5.9972 4.12948 5.9972H4.61568C4.78398 5.9972 4.91998 6.1349 4.91998 6.3015V12.3212C4.91998 12.4895 4.78228 12.6255 4.61568 12.6255H4.12948C3.96118 12.6255 3.82688 12.4895 3.82688 12.3212V6.3015ZM11.5755 0.8292H8.35228V0.2189C8.35228 0.1322 8.28258 0.0625 8.19588 0.0625H4.80948C4.72278 0.0625 4.65308 0.1322 4.65308 0.2189V0.8292H1.42818C1.16978 0.8292 0.958984 1.0383 0.958984 1.2984V2.774H12.0447V1.2984C12.0447 1.04 11.8356 0.8292 11.5755 0.8292Z"
  fill="red"
/>
</svg>